<svg width="50" height="50" viewBox="0 0 50 50" fill="none" xmlns="http://www.w3.org/2000/svg">
<path d="M25 20.8333C24.1759 20.8333 23.3703 21.0777 22.6851 21.5355C21.9999 21.9934 21.4659 22.6441 21.1505 23.4055C20.8351 24.1668 20.7526 25.0046 20.9134 25.8129C21.0742 26.6211 21.471 27.3636 22.0537 27.9463C22.6364 28.529 23.3789 28.9258 24.1871 29.0866C24.9954 29.2474 25.8332 29.1649 26.5945 28.8495C27.3559 28.5341 28.0066 28.0001 28.4645 27.3149C28.9223 26.6297 29.1667 25.8241 29.1667 25C29.1667 23.8949 28.7277 22.8351 27.9463 22.0537C27.1649 21.2723 26.1051 20.8333 25 20.8333ZM10.4167 20.8333C9.59258 20.8333 8.787 21.0777 8.10179 21.5355C7.41659 21.9934 6.88254 22.6441 6.56717 23.4055C6.25181 24.1668 6.16929 25.0046 6.33006 25.8129C6.49083 26.6211 6.88767 27.3636 7.47039 27.9463C8.05311 28.529 8.79554 28.9258 9.60379 29.0866C10.412 29.2474 11.2498 29.1649 12.0112 28.8495C12.7725 28.5341 13.4233 28.0001 13.8811 27.3149C14.339 26.6297 14.5833 25.8241 14.5833 25C14.5833 23.8949 14.1443 22.8351 13.3629 22.0537C12.5815 21.2723 11.5217 20.8333 10.4167 20.8333ZM39.5833 20.8333C38.7592 20.8333 37.9537 21.0777 37.2685 21.5355C36.5833 21.9934 36.0492 22.6441 35.7338 23.4055C35.4185 24.1668 35.336 25.0046 35.4967 25.8129C35.6575 26.6211 36.0543 27.3636 36.6371 27.9463C37.2198 28.529 37.9622 28.9258 38.7705 29.0866C39.5787 29.2474 40.4165 29.1649 41.1778 28.8495C41.9392 28.5341 42.5899 28.0001 43.0478 27.3149C43.5056 26.6297 43.75 25.8241 43.75 25C43.75 23.8949 43.311 22.8351 42.5296 22.0537C41.7482 21.2723 40.6884 20.8333 39.5833 20.8333Z" fill="#C7D4E6"/>
</svg>
