<svg width="153" height="366" viewBox="0 0 153 366" fill="none" xmlns="http://www.w3.org/2000/svg">
<path d="M152 366H152.5V148.026V0L152 0L151.5 0V148.026C151.5 158.763 148.612 169.303 143.139 178.54C132.361 196.731 112.785 207.886 91.6403 207.886H48.9227C27.4538 207.886 8.62303 222.21 2.89268 242.9C0.658465 250.967 0.583457 259.479 2.67517 267.584L2.9766 268.752C8.68913 290.887 28.1223 306.742 50.9533 307.896L91.3949 309.938C112.813 311.02 132.227 322.873 142.975 341.43L146.562 347.623C149.797 353.207 151.5 359.546 151.5 366H152Z" fill="white" stroke="white"/>
</svg>
