<svg width="50" height="50" viewBox="0 0 50 50" fill="none" xmlns="http://www.w3.org/2000/svg">
<path d="M45.8334 21.0417C46.0417 20 45.2084 18.75 44.1667 18.75L32.2917 17.0833L26.875 6.25C26.6667 5.83333 26.4584 5.625 26.0417 5.41666C25 4.79166 23.75 5.20833 23.125 6.25L17.9167 17.0833L6.04169 18.75C5.41669 18.75 5.00002 18.9583 4.79169 19.375C3.95835 20.2083 3.95835 21.4583 4.79169 22.2917L13.3334 30.625L11.25 42.5C11.25 42.9167 11.25 43.3333 11.4584 43.75C12.0834 44.7917 13.3334 45.2083 14.375 44.5833L25 38.9583L35.625 44.5833C35.8334 44.7917 36.25 44.7917 36.6667 44.7917C36.875 44.7917 36.875 44.7917 37.0834 44.7917C38.125 44.5833 38.9584 43.5417 38.75 42.2917L36.6667 30.4167L45.2084 22.0833C45.625 21.875 45.8334 21.4583 45.8334 21.0417Z" fill="white"/>
</svg>
